<?xml version="1.0" encoding="UTF-8"?>
<svg id="VERY_FINAL_LOGO" data-name="VERY FINAL LOGO" xmlns="http://www.w3.org/2000/svg" viewBox="0 0 286.87 426.62">
  <defs>
    <style>
      .cls-1 {
        font-size: 46.18px;
        stroke: #fff;
        stroke-miterlimit: 10;
      }

      .cls-1, .cls-2 {
        fill: #fff;
        font-family: BellMT, 'Bell MT';
      }

      .cls-2 {
        font-size: 31.27px;
      }
    </style>
  </defs>
  <path d="M277.23,273.17c-3.87-3.15-9.13-5.95-9.54-10.93-.24-2.88,1.31-5.55,2.33-8.26,3.17-8.46.94-18.4-4.56-25.56-5.51-7.17-13.93-11.73-22.72-13.82-2.64-.63-5.4-1.08-7.65-2.59-5.47-3.66-5.57-11.45-7.52-17.74-2.52-8.13-9.2-14.85-17.32-17.41-9.49-3-19.55-.45-29.08,2.99-11.79-3.8-24.36-5.86-37.42-5.86s-25.86,2.1-37.74,5.96c-9.62-3.49-19.78-6.12-29.37-3.09-8.12,2.56-14.8,9.28-17.32,17.41-1.95,6.29-2.04,14.08-7.52,17.74-2.25,1.51-5.02,1.96-7.65,2.59-8.79,2.09-17.21,6.66-22.72,13.82-5.51,7.17-7.74,17.1-4.56,25.56,1.01,2.71,2.57,5.38,2.33,8.26-.42,4.98-5.67,7.78-9.54,10.93C3.72,277.99.09,285.51,0,293.15c-.09,7.64,3.37,15.24,9.18,20.2,2.87,2.44,6.24,4.25,9.06,6.74,2.82,2.5,5.14,5.99,4.87,9.75-.31,4.27-3.77,7.57-5.46,11.5-2.44,5.69-.87,12.59,2.98,17.44,3.85,4.85,9.65,7.85,15.65,9.4,4.55,1.18,9.96,2.07,12.14,6.23,1.59,3.03.8,6.69.74,10.11-.17,10.42,7.86,20.39,18.09,22.43,5.84,1.17,11.85-.02,17.71-1.09,1.32-.24,2.74-.47,3.98.06,1.57.68,2.39,2.39,3.07,3.97,2.27,5.26,4.73,10.84,9.49,14.02,8.58,5.73,27.95,1.69,34.84-5.99l-1.41-.33c.68.05,1.36.1,2.04.14-16.63-10.53-56.75-44.89-40.64-124.61h94.94s21.75,85.67-40.88,124.62c.44-.02.87-.06,1.31-.09l-1.15.27c6.89,7.69,26.26,11.73,34.84,5.99,4.76-3.18,7.22-8.76,9.49-14.02.68-1.57,1.49-3.28,3.07-3.97,1.23-.54,2.65-.31,3.98-.06,5.85,1.08,11.87,2.26,17.71,1.09,10.22-2.04,18.26-12.01,18.09-22.43-.06-3.42-.85-7.08.74-10.11,2.18-4.16,7.59-5.05,12.14-6.23,6-1.55,11.8-4.55,15.65-9.4,3.85-4.85,5.42-11.75,2.98-17.44-1.69-3.93-5.15-7.23-5.46-11.5-.27-3.76,2.05-7.26,4.87-9.75,2.82-2.5,6.19-4.3,9.06-6.74,5.81-4.96,9.27-12.56,9.18-20.2-.09-7.64-3.72-15.16-9.64-19.98Z"/>
  <text class="cls-2" transform="translate(108.76 273.24)"><tspan x="0" y="0">Press</tspan></text>
  <g>
    <path d="M165.15,296.93c-.72-.05-1.51.13-2.03.67-.6.63-.8,1.63-.37,2.41.71,1.28,2.87,1.37,3.89.42,1.29-1.19.53-3.18-1.05-3.62-1.25-.36-2.65-.12-3.58.81-.53.54-.89,1.27-.7,2.04.16.64.64,1.1,1.21,1.37,1.18.57,3.21,1.02,4.05-.37.47-.78.33-1.76-.4-2.33-.57-.45-1.38-.45-2.08-.45-.79,0-1.48.32-1.89,1.01-.3.51-.54,1.07-.82,1.6-1.22,2.29-2.7,4.53-4.29,6.47l2.36,1.82c.97-2.24,2.04-4.44,3.27-6.55.27-.46.55-.9.78-1.38.04-.08.08-.15.12-.23.13-.26-.07.05-.11.11-.06.08-.17.04.02,0,.4-.08-.15-.01.09,0,.12,0,.24,0,.36.02-.26-.02.07.02.12.03.24.05.48.12.72.17.43.1.79.09,1.2-.08.12-.05.24-.1.35-.16.16-.08.34-.07-.06.01h-.8.04c-.3-.22-.6-.45-.9-.68l.02.05-.2-.76s.1-.41.03-.2c-.03.08-.05.17-.07.25-.02.07-.05.14-.07.21-.04.14.11-.15.04-.11-.12.07-.26.39-.34.5-.15.21-.3.42-.46.63-.53.71-1.14,1.46-1.8,2.19-1.35,1.52-2.83,2.91-4.41,4.19l2.36,1.82c1.61-2.73,3.3-5.42,5.05-8.06.45-.68.13-1.66-.54-2.05-.73-.43-1.6-.14-2.05.54-1.75,2.64-3.44,5.33-5.05,8.06-.38.64-.2,1.49.39,1.94.64.48,1.37.36,1.97-.12,1.51-1.22,2.93-2.55,4.24-3.99.69-.76,1.34-1.56,1.97-2.37.56-.73,1.17-1.45,1.51-2.32.13-.33.24-.69.25-1.05.01-.8-.58-1.48-1.37-1.58-.43-.06-.99.08-1.34.36.5-.4,1.08-.03.64-.17-.09-.03-.19-.05-.29-.07-.33-.07-.66-.13-.99-.16-1.04-.12-2.17.15-2.85,1-.24.3-.37.63-.56.96-.25.44-.53.87-.78,1.31-1.15,2.01-2.17,4.1-3.08,6.23-.3.69-.26,1.45.39,1.94.55.41,1.49.47,1.97-.12,1.26-1.54,2.44-3.15,3.48-4.84.5-.81.96-1.63,1.4-2.47.11-.21.22-.42.32-.63.09-.17.28-.43.3-.62.11-.18-.02-.13-.36.15-.43.14-.54.21-.33.21.09.03.22.01.31.01.11,0,.22.01.33.02.55.03-.08.12-.4-.25l-.39-.66.02.1v-.8l.22-.39.66-.39c-.29.12.15.05-.21.03-.11,0-.23,0-.34-.02.09.01.18.08,0-.01-.09-.05-.18-.09-.27-.12-.3-.12-.01-.05-.03.03.4.55.44,1,.14,1.34-.06.07-.06.07,0,0,.09-.07.22-.19.05-.07.05-.03.1-.07.15-.09.09-.05.06-.04-.07.04-.18-.05.06,0,.15,0,.13,0,.26,0,.39.01-.22-.02.05.07,0,0-.14-.05-.24-.14-.32-.28l.17-1.16c.4-.19.51-.26.31-.2-.11.03-.08.03.1,0-.1,0-.22-.01-.32.01-.34-.03-.23.22.31.74.56.49.54.86-.06,1.12h-.1c.1.01.2.02.3.03.78.06,1.53-.73,1.5-1.5-.04-.86-.66-1.44-1.5-1.5h0Z"/>
    <path d="M122.34,299.93c.08,0,.15-.01.23-.01.11,0,.1,0-.02-.01l-.45-.38.77-1.48c-.1-.03-.28,0-.39,0,.33.04-.18-.15.22.09.45.2.57.62.36,1.27l-.27.27c-.12.04-.12.05-.02.02.09-.02.1-.02.02,0-.17.02.22,0,.25,0,.06,0,.42-.06.23,0-.09.03-.18-.12.03.02.08.06.07.04-.05-.04l.1.09.09.1c-.2-.19-.2-.44,0-.75-.1-.34-.02-.6.22-.75l-.1.06c-.11.03-.22.1-.32.15-.09.04-.13.03-.02.01.07-.01-.3.01-.31.02h-.17c.15.04.13.03-.04-.03l.66.39.22.39v.8l.02-.1-.39.66c-.08.09-.95.24-.48.26.11,0,.22-.01.33-.02s.23,0,.33-.02c.45-.1-.68-.24-.66-.42-.01.14.23.47.29.6.11.21.21.42.32.63.45.87.93,1.71,1.44,2.55,1.04,1.7,2.22,3.31,3.48,4.84.47.57,1.44.54,1.97.12.63-.5.69-1.23.39-1.94-.81-1.88-1.69-3.72-2.68-5.51-.45-.81-.96-1.59-1.37-2.41-.52-1.04-1.49-1.56-2.63-1.61-.48-.02-.97.07-1.43.16-.13.03-.47.05-.58.14.06-.05.97.29.69.08-.06-.04-.13-.08-.2-.11-.64-.32-1.42-.32-1.95.22-.48.48-.53,1.17-.36,1.8.22.81.69,1.44,1.18,2.1.61.82,1.25,1.63,1.92,2.41,1.44,1.67,3.04,3.2,4.76,4.58.58.47,1.34.62,1.97.12.58-.46.77-1.28.39-1.94-1.61-2.73-3.3-5.42-5.05-8.06-.45-.67-1.33-.96-2.05-.54-.67.39-.99,1.37-.54,2.05,1.75,2.64,3.44,5.33,5.05,8.06l2.36-1.82c-1.58-1.27-3.06-2.67-4.41-4.19-.63-.71-1.23-1.44-1.74-2.12-.28-.38-.53-.82-.84-1.17-.13-.15.07.13.05.13s-.07-.18-.08-.2c-.03-.08-.05-.17-.08-.25-.05-.16.02-.28.01.15l-.2.76.02-.05-.9.69h.04c-.27-.01-.53-.01-.8-.01-.33-.07-.26-.12-.11-.04.07.04.14.07.21.11.44.21.83.26,1.31.17.24-.04.48-.12.72-.17.03,0,.41-.07.25-.05s.21,0,.24,0c.26-.04-.04-.04.09,0,.04,0,.09.02.13.03.1.03.09.02-.05-.02-.04-.05-.19-.32-.15-.16.02.09.11.21.15.28.24.47.52.92.78,1.38,1.23,2.11,2.3,4.3,3.27,6.55l2.36-1.82c-1.41-1.72-2.74-3.68-3.87-5.69-.29-.52-.57-1.04-.83-1.57-.3-.6-.56-1.22-1.17-1.58-.58-.34-1.32-.26-1.96-.2-.88.07-1.65.46-1.88,1.38-.25.97.43,1.92,1.35,2.18.63.17,1.49.11,2.1-.09.49-.16,1.1-.44,1.48-.8.63-.59.79-1.52.38-2.28-.61-1.15-1.85-1.7-3.11-1.64-.68.03-1.32.15-1.86.59-.66.53-1.01,1.41-.76,2.25.47,1.57,2.9,2.06,4.08,1,.7-.64.83-1.68.35-2.5s-1.44-1.15-2.35-1.08c-.78.06-1.54.65-1.5,1.5.03.76.66,1.56,1.5,1.5h0Z"/>
    <g>
      <g>
        <path d="M144.67,296.75c-.34,0-.69.04-.99.17-.54.23-1.01.66-1.31,1.18-.04.07-.1.13-.14.2-.34.61-.45,1.31-.5,2.01-.24,3.12.69,6.32,2.57,8.82.1.13.22.26.37.33v-12.71Z"/>
        <path d="M144.67,295.25c-1.67.05-3.09.97-3.82,2.48-.68,1.39-.73,3.09-.61,4.6s.45,3.01,1.04,4.42,1.35,3.15,2.64,4c.97.64,2.26-.21,2.26-1.3v-12.71c0-1.93-3-1.93-3,0v12.71l2.26-1.3c.19.13-.21-.34-.2-.32-.16-.24-.31-.48-.45-.72-.26-.44-.49-.9-.69-1.37-.39-.95-.68-1.98-.81-3-.15-1.19-.48-4.45,1.39-4.51s1.93-3.06,0-3Z"/>
      </g>
      <g>
        <path d="M144.74,296.75c.34,0,.69.04.99.17.54.23,1.01.66,1.31,1.18.04.07.1.13.14.2.34.61.45,1.31.5,2.01.24,3.12-.69,6.32-2.57,8.82-.1.13-.22.26-.37.33v-12.71Z"/>
        <path d="M144.74,298.25c1.87.06,1.54,3.32,1.39,4.51-.13,1.02-.41,2.05-.81,3-.19.47-.43.93-.69,1.37-.14.25-.29.49-.45.72.01-.02-.39.44-.2.32l2.26,1.3c0-3.71,0-7.43,0-11.14v-1.58c0-1.93-3-1.93-3,0,0,3.71,0,7.43,0,11.14v1.58c0,1.09,1.29,1.93,2.26,1.3,1.29-.86,2.07-2.61,2.64-4s.91-2.9,1.04-4.42.08-3.22-.61-4.6c-.75-1.51-2.15-2.43-3.82-2.48-1.93-.06-1.93,2.94,0,3Z"/>
      </g>
    </g>
  </g>
  <path d="M200.74,209.41c-.03-.92-.09-1.82-.17-2.71-.01-.15-.03-.3-.04-.45-.09-.84-.2-1.67-.33-2.48-.03-.16-.06-.32-.08-.49-.14-.81-.3-1.61-.49-2.38-.02-.09-.05-.18-.07-.28-.18-.74-.38-1.46-.59-2.16-.03-.11-.06-.22-.1-.33-.22-.72-.46-1.43-.71-2.11-.06-.15-.11-.31-.17-.46-.25-.67-.51-1.32-.78-1.95-.06-.13-.11-.25-.17-.38-.27-.6-.54-1.19-.82-1.76-.03-.06-.06-.13-.09-.19-.3-.6-.6-1.17-.91-1.73-.07-.13-.14-.26-.21-.38-.3-.53-.6-1.04-.9-1.54-.07-.12-.15-.24-.22-.36-.31-.49-.62-.97-.92-1.43-.04-.06-.08-.12-.13-.18-.29-.42-.57-.83-.85-1.21-.06-.08-.12-.17-.18-.25-.3-.4-.58-.78-.87-1.14-.07-.09-.13-.17-.2-.25-.28-.35-.55-.69-.81-1-.04-.05-.08-.1-.13-.15-.26-.31-.51-.59-.74-.85-.02-.02-.04-.04-.05-.06-.25-.28-.48-.53-.7-.76-.02-.03-.05-.05-.07-.08-.21-.23-.41-.42-.58-.59,0,0,0,0,0,0-.49-.49-.78-.75-.78-.75-26.28-34.76-26.57-83.21-26.12-96.29.91-14.38,3.7-30.94,10.34-46.95,0,0,.78-2.05,1.54-5.08,6.09-18.52-4.59-24.48-4.59-24.48-1.66-.85-3.3-1.59-4.92-2.23-2.99-1.3-7.48-2.77-13.07-3.24-3-.32-5.84-.34-8.5-.16-13.89.46-20.84,6-20.84,6-11.99,7.63-3.75,29.19-3.75,29.19,7.37,17.79,10,36.25,10.58,51.65.08,2.28.12,4.5.13,6.63,0,.53,0,1.06,0,1.59-.11,16.76-2.41,28.24-2.41,28.24-7.21,38.4-29.55,63.85-29.55,63.85-.7.44-1.34,1.12-1.94,1.97s-1.14,1.86-1.63,2.98c-.25.56-.48,1.15-.71,1.75s-.43,1.23-.63,1.86c-.5,1.58-.93,3.22-1.29,4.79-.07.31-.14.63-.21.93-.93,4.3-1.35,7.87-1.35,7.87h0s0,0,0,0c0,0,0,0,0,0,.34-.18.69-.36,1.06-.53.12-.06.24-.11.37-.16.25-.11.51-.23.78-.34.15-.06.3-.12.46-.18.25-.1.51-.2.78-.29.16-.06.33-.12.5-.17.27-.09.55-.18.84-.27.16-.05.33-.1.49-.16.32-.1.65-.19.99-.28.14-.04.27-.08.41-.12.47-.13.96-.25,1.45-.37.12-.03.24-.05.35-.08.39-.09.78-.18,1.18-.26.2-.04.4-.08.6-.12.33-.07.66-.13,1-.2.22-.04.45-.08.67-.12.33-.06.66-.11,1-.17.23-.04.47-.08.7-.11.35-.05.7-.11,1.06-.16.23-.03.45-.07.69-.1.41-.06.83-.11,1.24-.16.18-.02.36-.05.54-.07.58-.07,1.18-.14,1.78-.2.24-.03.48-.05.73-.07.38-.04.76-.08,1.15-.11.29-.03.58-.05.86-.07.35-.03.7-.06,1.06-.09.31-.02.61-.05.92-.07.35-.02.69-.05,1.04-.07.32-.02.63-.04.95-.06.35-.02.71-.04,1.06-.06.32-.02.64-.04.96-.05.38-.02.77-.03,1.16-.05.6-.03,1.2-.05,1.8-.07.34-.01.67-.02,1.01-.03.39-.01.78-.02,1.17-.03.31,0,.61-.02.92-.02.4,0,.8-.02,1.21-.02.3,0,.6,0,.9-.01.41,0,.83-.01,1.24-.01.29,0,.58,0,.87,0,.43,0,.86,0,1.3,0,.25,0,.5,0,.75,0,1.68,0,3.38.02,5.08.05.15,0,.29,0,.44,0,.52,0,1.04.02,1.56.03.2,0,.41,0,.61.01.51.01,1.03.03,1.54.04.2,0,.41.01.61.02.52.02,1.05.03,1.57.05.17,0,.34.01.51.02.57.02,1.13.04,1.7.06,17.36.67,34.72,2.36,46.11,3.65.49.05.96.11,1.42.16.02,0,.04,0,.06,0,.46.05.91.11,1.34.16.02,0,.03,0,.05,0,.44.05.86.1,1.27.15.02,0,.04,0,.05,0,.84.1,1.63.2,2.37.29.01,0,.03,0,.04,0,.36.04.7.09,1.03.13.02,0,.03,0,.05,0,.33.04.66.08.96.12h0c1.25.16,2.26.29,3,.39.01,0,.03,0,.04,0,.19.02.36.05.51.07.08.04.16.08.24.12,0,0,0-.04-.01-.09.03,0,.07,0,.1.01.06,0,.1.01.15.02.08.01.15.02.21.03.12.02.2.03.2.03h0s0,0,0,0ZM148.56,43.83c-2.21,1.83-5.45,1.82-7.62-.06-3.61-3.12-8.35-9.43-7.61-20.71.21-3.14,2.79-5.6,5.93-5.6h11.01c3.14,0,5.75,2.44,5.93,5.58.33,5.81-.51,14.86-7.65,20.79Z"/>
  <text id="CAST_IRON_IV" data-name="CAST  IRON IV" class="cls-1" transform="translate(52.95 297.36) rotate(-64.38)"><tspan x="0" y="0">C</tspan></text>
  <text class="cls-1" transform="translate(65.08 271.04) rotate(-49.15)"><tspan x="0" y="0">A</tspan></text>
  <text class="cls-1" transform="translate(86.09 247.43) rotate(-30.51)"><tspan x="0" y="0">S</tspan></text>
  <text class="cls-1" transform="translate(103.47 235.78) rotate(-12.17)"><tspan x="0" y="0">T</tspan></text>
  <text class="cls-1" transform="translate(135.98 230.31) rotate(.57)"><tspan x="0" y="0"> </tspan></text>
  <text class="cls-1" transform="translate(146.1 230.11) rotate(6.09)"><tspan x="0" y="0"> </tspan></text>
  <text class="cls-1" transform="translate(154.65 230.65) rotate(13.85)"><tspan x="0" y="0">I</tspan></text>
  <text class="cls-1" transform="translate(171.06 233.76) rotate(28.1)"><tspan x="0" y="0">R</tspan></text>
  <text class="cls-1" transform="translate(196.03 246.5) rotate(43.93)"><tspan x="0" y="0">O</tspan></text>
  <text class="cls-1" transform="translate(218.11 267.38) rotate(57.54)"><tspan x="0" y="0">N</tspan></text>
</svg>