<?xml version="1.0" encoding="UTF-8"?>
<svg id="VERY_FINAL_LOGO" data-name="VERY FINAL LOGO" xmlns="http://www.w3.org/2000/svg" viewBox="0 0 286.87 426.62">
  <g>
    <path d="M165.15,296.93c-.72-.05-1.51.13-2.03.67-.6.63-.8,1.63-.37,2.41.71,1.28,2.87,1.37,3.89.42,1.29-1.19.53-3.18-1.05-3.62-1.25-.36-2.65-.12-3.58.81-.53.54-.89,1.27-.7,2.04.16.64.64,1.1,1.21,1.37,1.18.57,3.21,1.02,4.05-.37.47-.78.33-1.76-.4-2.33-.57-.45-1.38-.45-2.08-.45-.79,0-1.48.32-1.89,1.01-.3.51-.54,1.07-.82,1.6-1.22,2.29-2.7,4.53-4.29,6.47l2.36,1.82c.97-2.24,2.04-4.44,3.27-6.55.27-.46.55-.9.78-1.38.04-.08.08-.15.12-.23.13-.26-.07.05-.11.11-.06.08-.17.04.02,0,.4-.08-.15-.01.09,0,.12,0,.24,0,.36.02-.26-.02.07.02.12.03.24.05.48.12.72.17.43.1.79.09,1.2-.08.12-.05.24-.1.35-.16.16-.08.34-.07-.06.01h-.8.04c-.3-.22-.6-.45-.9-.68l.02.05-.2-.76s.1-.41.03-.2c-.03.08-.05.17-.07.25-.02.07-.05.14-.07.21-.04.14.11-.15.04-.11-.12.07-.26.39-.34.5-.15.21-.3.42-.46.63-.53.71-1.14,1.46-1.8,2.19-1.35,1.52-2.83,2.91-4.41,4.19l2.36,1.82c1.61-2.73,3.3-5.42,5.05-8.06.45-.68.13-1.66-.54-2.05-.73-.43-1.6-.14-2.05.54-1.75,2.64-3.44,5.33-5.05,8.06-.38.64-.2,1.49.39,1.94.64.48,1.37.36,1.97-.12,1.51-1.22,2.93-2.55,4.24-3.99.69-.76,1.34-1.56,1.97-2.37.56-.73,1.17-1.45,1.51-2.32.13-.33.24-.69.25-1.05.01-.8-.58-1.48-1.37-1.58-.43-.06-.99.08-1.34.36.5-.4,1.08-.03.64-.17-.09-.03-.19-.05-.29-.07-.33-.07-.66-.13-.99-.16-1.04-.12-2.17.15-2.85,1-.24.3-.37.63-.56.96-.25.44-.53.87-.78,1.31-1.15,2.01-2.17,4.1-3.08,6.23-.3.69-.26,1.45.39,1.94.55.41,1.49.47,1.97-.12,1.26-1.54,2.44-3.15,3.48-4.84.5-.81.96-1.63,1.4-2.47.11-.21.22-.42.32-.63.09-.17.28-.43.3-.62.11-.18-.02-.13-.36.15-.43.14-.54.21-.33.21.09.03.22.01.31.01.11,0,.22.01.33.02.55.03-.08.12-.4-.25l-.39-.66.02.1v-.8l.22-.39.66-.39c-.29.12.15.05-.21.03-.11,0-.23,0-.34-.02.09.01.18.08,0-.01-.09-.05-.18-.09-.27-.12-.3-.12-.01-.05-.03.03.4.55.44,1,.14,1.34-.06.07-.06.07,0,0,.09-.07.22-.19.05-.07.05-.03.1-.07.15-.09.09-.05.06-.04-.07.04-.18-.05.06,0,.15,0,.13,0,.26,0,.39.01-.22-.02.05.07,0,0-.14-.05-.24-.14-.32-.28l.17-1.16c.4-.19.51-.26.31-.2-.11.03-.08.03.1,0-.1,0-.22-.01-.32.01-.34-.03-.23.22.31.74.56.49.54.86-.06,1.12h-.1c.1.01.2.02.3.03.78.06,1.53-.73,1.5-1.5-.04-.86-.66-1.44-1.5-1.5h0Z"/>
    <path d="M122.34,299.93c.08,0,.15-.01.23-.01.11,0,.1,0-.02-.01l-.45-.38.77-1.48c-.1-.03-.28,0-.39,0,.33.04-.18-.15.22.09.45.2.57.62.36,1.27l-.27.27c-.12.04-.12.05-.02.02.09-.02.1-.02.02,0-.17.02.22,0,.25,0,.06,0,.42-.06.23,0-.09.03-.18-.12.03.02.08.06.07.04-.05-.04l.1.09.09.1c-.2-.19-.2-.44,0-.75-.1-.34-.02-.6.22-.75l-.1.06c-.11.03-.22.1-.32.15-.09.04-.13.03-.02.01.07-.01-.3.01-.31.02h-.17c.15.04.13.03-.04-.03l.66.39.22.39v.8l.02-.1-.39.66c-.08.09-.95.24-.48.26.11,0,.22-.01.33-.02s.23,0,.33-.02c.45-.1-.68-.24-.66-.42-.01.14.23.47.29.6.11.21.21.42.32.63.45.87.93,1.71,1.44,2.55,1.04,1.7,2.22,3.31,3.48,4.84.47.57,1.44.54,1.97.12.63-.5.69-1.23.39-1.94-.81-1.88-1.69-3.72-2.68-5.51-.45-.81-.96-1.59-1.37-2.41-.52-1.04-1.49-1.56-2.63-1.61-.48-.02-.97.07-1.43.16-.13.03-.47.05-.58.14.06-.05.97.29.69.08-.06-.04-.13-.08-.2-.11-.64-.32-1.42-.32-1.95.22-.48.48-.53,1.17-.36,1.8.22.81.69,1.44,1.18,2.1.61.82,1.25,1.63,1.92,2.41,1.44,1.67,3.04,3.2,4.76,4.58.58.47,1.34.62,1.97.12.58-.46.77-1.28.39-1.94-1.61-2.73-3.3-5.42-5.05-8.06-.45-.67-1.33-.96-2.05-.54-.67.39-.99,1.37-.54,2.05,1.75,2.64,3.44,5.33,5.05,8.06l2.36-1.82c-1.58-1.27-3.06-2.67-4.41-4.19-.63-.71-1.23-1.44-1.74-2.12-.28-.38-.53-.82-.84-1.17-.13-.15.07.13.05.13s-.07-.18-.08-.2c-.03-.08-.05-.17-.08-.25-.05-.16.02-.28.01.15l-.2.76.02-.05-.9.69h.04c-.27-.01-.53-.01-.8-.01-.33-.07-.26-.12-.11-.04.07.04.14.07.21.11.44.21.83.26,1.31.17.24-.04.48-.12.72-.17.03,0,.41-.07.25-.05s.21,0,.24,0c.26-.04-.04-.04.09,0,.04,0,.09.02.13.03.1.03.09.02-.05-.02-.04-.05-.19-.32-.15-.16.02.09.11.21.15.28.24.47.52.92.78,1.38,1.23,2.11,2.3,4.3,3.27,6.55l2.36-1.82c-1.41-1.72-2.74-3.68-3.87-5.69-.29-.52-.57-1.04-.83-1.57-.3-.6-.56-1.22-1.17-1.58-.58-.34-1.32-.26-1.96-.2-.88.07-1.65.46-1.88,1.38-.25.97.43,1.92,1.35,2.18.63.17,1.49.11,2.1-.09.49-.16,1.1-.44,1.48-.8.63-.59.79-1.52.38-2.28-.61-1.15-1.85-1.7-3.11-1.64-.68.03-1.32.15-1.86.59-.66.53-1.01,1.41-.76,2.25.47,1.57,2.9,2.06,4.08,1,.7-.64.83-1.68.35-2.5s-1.44-1.15-2.35-1.08c-.78.06-1.54.65-1.5,1.5.03.76.66,1.56,1.5,1.5h0Z"/>
    <g>
      <g>
        <path d="M144.67,296.75c-.34,0-.69.04-.99.17-.54.23-1.01.66-1.31,1.18-.04.07-.1.13-.14.2-.34.61-.45,1.31-.5,2.01-.24,3.12.69,6.32,2.57,8.82.1.13.22.26.37.33v-12.71Z"/>
        <path d="M144.67,295.25c-1.67.05-3.09.97-3.82,2.48-.68,1.39-.73,3.09-.61,4.6s.45,3.01,1.04,4.42,1.35,3.15,2.64,4c.97.64,2.26-.21,2.26-1.3v-12.71c0-1.93-3-1.93-3,0v12.71l2.26-1.3c.19.13-.21-.34-.2-.32-.16-.24-.31-.48-.45-.72-.26-.44-.49-.9-.69-1.37-.39-.95-.68-1.98-.81-3-.15-1.19-.48-4.45,1.39-4.51s1.93-3.06,0-3Z"/>
      </g>
      <g>
        <path d="M144.74,296.75c.34,0,.69.04.99.17.54.23,1.01.66,1.31,1.18.04.07.1.13.14.2.34.61.45,1.31.5,2.01.24,3.12-.69,6.32-2.57,8.82-.1.13-.22.26-.37.33v-12.71Z"/>
        <path d="M144.74,298.25c1.87.06,1.54,3.32,1.39,4.51-.13,1.02-.41,2.05-.81,3-.19.47-.43.93-.69,1.37-.14.25-.29.49-.45.72.01-.02-.39.44-.2.32l2.26,1.3c0-3.71,0-7.43,0-11.14v-1.58c0-1.93-3-1.93-3,0,0,3.71,0,7.43,0,11.14v1.58c0,1.09,1.29,1.93,2.26,1.3,1.29-.86,2.07-2.61,2.64-4s.91-2.9,1.04-4.42.08-3.22-.61-4.6c-.75-1.51-2.15-2.43-3.82-2.48-1.93-.06-1.93,2.94,0,3Z"/>
      </g>
    </g>
  </g>
  <g>
    <path d="M147.56,260.66c-.74,0-1.47.36-2.2,1.09s-1.2,1.92-1.42,3.56c1.33.06,2.61.09,3.86.09l.81-.05c.61-.02,1.08-.14,1.41-.36.33-.22.49-.6.49-1.15,0-.85-.29-1.6-.88-2.24-.59-.64-1.28-.95-2.07-.95Z"/>
    <path d="M118.3,253.73c-1.05,0-1.96.11-2.75.34-.01.37-.02.59-.02.69l.06,3.51-.06,3.73c0,.18,0,.51.02.98,1.5.05,2.35.08,2.55.08,1.04,0,2.02-.18,2.93-.53.92-.36,1.58-1,2.01-1.92.42-.92.63-1.84.63-2.74,0-1.15-.39-2.12-1.17-2.92-.78-.8-2.18-1.2-4.21-1.2Z"/>
    <path d="M197.82,215.07c-1.19-.64-2.6-1.18-4.22-1.64-2.11,3.56-3.74,6.42-4.89,8.58-.4.74-.82,1.64-1.26,2.7,2.58,1.31,4.58,2.15,6.02,2.52,1.44.38,2.88.28,4.33-.27,1.45-.56,2.55-1.54,3.31-2.96.8-1.5,1-3.07.6-4.72-.4-1.65-1.7-3.05-3.88-4.22Z"/>
    <path d="M55.15,244.01c1.24,2.93,3.31,6.88,6.21,11.85.96-1.22,1.66-2.09,2.1-2.6l4.23-4.72c-1.55-.6-3.63-1.37-6.24-2.3-3.14-1.08-5.24-1.83-6.3-2.23Z"/>
    <path d="M277.23,273.17c-3.87-3.15-9.13-5.95-9.54-10.93-.24-2.88,1.31-5.55,2.33-8.26,3.17-8.46.94-18.4-4.56-25.56-5.51-7.17-13.93-11.73-22.72-13.82-2.64-.63-5.4-1.08-7.65-2.59-5.47-3.66-5.57-11.45-7.52-17.74-2.52-8.13-9.2-14.85-17.32-17.41-9.49-3-19.55-.45-29.08,2.99-11.79-3.8-24.36-5.86-37.42-5.86s-25.86,2.1-37.74,5.96c-9.62-3.49-19.78-6.12-29.37-3.09-8.12,2.56-14.8,9.28-17.32,17.41-1.95,6.29-2.04,14.08-7.52,17.74-2.25,1.51-5.02,1.96-7.65,2.59-8.79,2.09-17.21,6.66-22.72,13.82-5.51,7.17-7.74,17.1-4.56,25.56,1.01,2.71,2.57,5.38,2.33,8.26-.42,4.98-5.67,7.78-9.54,10.93C3.72,277.99.09,285.51,0,293.15c-.09,7.64,3.37,15.24,9.18,20.2,2.87,2.44,6.24,4.25,9.06,6.74,2.82,2.5,5.14,5.99,4.87,9.75-.31,4.27-3.77,7.57-5.46,11.5-2.44,5.69-.87,12.59,2.98,17.44,3.85,4.85,9.65,7.85,15.65,9.4,4.55,1.18,9.96,2.07,12.14,6.23,1.59,3.03.8,6.69.74,10.11-.17,10.42,7.86,20.39,18.09,22.43,5.84,1.17,11.85-.02,17.71-1.09,1.32-.24,2.74-.47,3.98.06,1.57.68,2.39,2.39,3.07,3.97,2.27,5.26,4.73,10.84,9.49,14.02,8.58,5.73,27.95,1.69,34.84-5.99l-1.41-.33c.68.05,1.36.1,2.04.14-16.63-10.53-56.75-44.89-40.64-124.61h94.94s21.75,85.67-40.88,124.62c.44-.02.87-.06,1.31-.09l-1.15.27c6.89,7.69,26.26,11.73,34.84,5.99,4.76-3.18,7.22-8.76,9.49-14.02.68-1.57,1.49-3.28,3.07-3.97,1.23-.54,2.65-.31,3.98-.06,5.85,1.08,11.87,2.26,17.71,1.09,10.22-2.04,18.26-12.01,18.09-22.43-.06-3.42-.85-7.08.74-10.11,2.18-4.16,7.59-5.05,12.14-6.23,6-1.55,11.8-4.55,15.65-9.4,3.85-4.85,5.42-11.75,2.98-17.44-1.69-3.93-5.15-7.23-5.46-11.5-.27-3.76,2.05-7.26,4.87-9.75,2.82-2.5,6.19-4.3,9.06-6.74,5.81-4.96,9.27-12.56,9.18-20.2-.09-7.64-3.72-15.16-9.64-19.98ZM158.38,230.69c1.37.31,2.27.05,2.72-.77.45-.82,1.26-3.58,2.42-8.3,1.12-4.55,1.99-8.25,2.6-11.09.62-2.84.8-4.62.56-5.34-.24-.73-.89-1.3-1.94-1.73-.39-.17-.55-.39-.49-.65.06-.26.25-.36.56-.28l3.97,1.07,6.14,1.42c.73.18,1.06.42.99.71-.05.22-.29.31-.69.27-1.67-.2-2.83.14-3.46,1-.64.86-1.72,4.38-3.24,10.54-.56,2.26-1.13,4.82-1.71,7.68-.58,2.86-.87,4.59-.86,5.18,0,.59.17,1.11.5,1.56.32.45,1.02.89,2.09,1.31.35.13.5.32.45.55-.06.26-.27.35-.6.27l-5.43-1.39-4.65-1.08c-.51-.13-.73-.33-.66-.63.08-.31.32-.41.73-.31ZM60.75,282.51c-1.09,2.27-2.7,4.14-4.83,5.63-2.13,1.49-4.5,2.34-7.11,2.56-2.61.22-5.28-.33-8.02-1.64-2.68-1.29-4.83-3.03-6.42-5.22-1.6-2.19-2.49-4.63-2.67-7.31-.18-2.68.26-5.13,1.33-7.37.57-1.19,1.35-2.33,2.32-3.4.97-1.07,2.15-2.07,3.53-3.01-.31-1.06-.55-1.71-.73-1.93-.26-.29-.33-.57-.21-.82.13-.27.45-.3.95-.1l7.31,2.96c.41.2.65.33.72.41.07.08.07.2,0,.36-.1.22-.51.31-1.21.27-2.59-.14-4.96.26-7.1,1.2-2.14.96-3.67,2.38-4.57,4.26-.79,1.65-.99,3.43-.59,5.32.4,1.89,1.4,3.7,3.01,5.41,1.6,1.71,3.54,3.11,5.8,4.2,3.85,1.85,7.49,2.29,10.91,1.32,3.42-.97,5.76-2.76,7.02-5.38.85-1.78,1.07-3.68.67-5.71-.41-2.03-1.17-3.78-2.28-5.25-.31-.4-.41-.71-.31-.92.14-.3.38-.37.7-.21.39.19,1.01,1.12,1.84,2.79.83,1.67,1.26,3.54,1.29,5.61s-.43,4.07-1.35,6ZM85.21,248.07l-.22.22c-1,.97-2.19,2.26-3.59,3.88-2.14,2.48-3.48,4.11-4.01,4.88-.3.35-.56.44-.76.26-.15-.13-.13-.34.07-.63.75-1.05,1.16-1.86,1.24-2.43s-.13-1.09-.65-1.53c-.49-.42-2.01-1.13-4.57-2.13l-3.8-1.53c-.51.59-2.76,3.27-6.76,8.02,2.12,3.91,3.6,6.22,4.42,6.93.7.6,1.47.76,2.31.46.84-.29,1.53-.71,2.06-1.25.4-.39.71-.49.93-.3.09.08.11.22.07.42-1.65,1.75-2.64,2.81-2.97,3.19-1.65,1.91-2.74,3.22-3.27,3.92-.31.36-.57.46-.78.28-.18-.16-.16-.42.07-.77.96-1.46.94-3.22-.06-5.3-1-2.08-2.95-5.65-5.84-10.72-2.62-4.62-4.98-9.22-7.07-13.82l.68-.79c3.7.98,9.67,3.08,17.9,6.29,5.28,2.05,8.61,3.2,9.99,3.46s2.63-.17,3.76-1.26c.36-.35.65-.43.86-.24.16.14.16.3-.01.5ZM101.77,235.47c-.74,2.62-2.35,4.65-4.81,6.11-2.22,1.31-4.85,1.93-7.91,1.86-.23.62-.26,1.22-.1,1.79.14.47.09.78-.14.92-.21.12-.51-.06-.92-.53-.4-.48-2.07-2.88-5-7.21-.04-.19.05-.34.27-.47.19-.11.43-.06.72.15,4.95,3.84,9.21,4.7,12.79,2.59,1.78-1.05,2.85-2.4,3.22-4.06s.15-3.18-.66-4.57c-.56-.96-1.35-1.68-2.36-2.17-1.01-.49-2.1-.71-3.28-.68s-2.9.31-5.18.83c-2.93.66-5.04.9-6.35.72-1.3-.18-2.42-.6-3.36-1.24s-1.65-1.38-2.14-2.21c-1.01-1.72-1.13-3.71-.36-5.96.78-2.25,2.3-4.05,4.56-5.39.86-.5,1.83-.9,2.93-1.18s2.33-.45,3.68-.49c.14-.56.16-1.06.06-1.5-.08-.37-.02-.62.17-.73.1-.06.26-.06.46-.01.36.41,1.05,1.28,2.05,2.59l2.62,3.38c.14.23.06.43-.22.6-.16.09-.37.04-.64-.15-1.69-1.29-3.54-2.1-5.55-2.44-2-.32-3.8,0-5.4.93-1.57.92-2.47,2.09-2.71,3.51-.24,1.42-.05,2.65.58,3.72.76,1.29,1.78,2.03,3.05,2.21s3.52-.1,6.74-.83c2.36-.55,4.21-.83,5.54-.83,1.33,0,2.65.32,3.94.98,1.29.65,2.29,1.58,3,2.78,1.21,2.05,1.44,4.38.69,7ZM124.51,262.32c-1.45.89-3.62,1.34-6.52,1.34-.7,0-1.52-.03-2.44-.09,0,.46-.03,1.15-.09,2.06-.03.45-.05.9-.05,1.36,0,.35.02,1.09.05,2.24s.11,1.86.21,2.15c.11.28.34.56.7.82s.75.41,1.17.43c.47.03.7.14.7.32,0,.14-.07.23-.21.25s-.68.04-1.62.04l-4.2-.02c-1.18,0-1.81-.02-1.89-.05-.08-.04-.11-.1-.11-.21,0-.16.19-.28.58-.37.68-.15,1.16-.39,1.43-.72.27-.33.44-1.02.5-2.1.06-1.07.09-2.31.09-3.71l-.05-4.07.05-4.39c0-1.56-.11-2.55-.32-2.98s-.63-.7-1.25-.82c-.67-.12-1.01-.27-1.01-.44s.15-.26.46-.26l3.02.02,4.85-.03c3.2,0,5.35.5,6.45,1.49,1.1,1,1.66,2.24,1.66,3.73,0,1.78-.72,3.12-2.17,4.01ZM128.13,205.96c-1.02-1.03-2.01-1.75-2.97-2.19-.96-.43-1.96-.63-3.01-.58-1.05.04-3.13.37-6.23.97.3,2.26.76,4.81,1.38,7.66,2.04,9.43,3.44,14.95,4.21,16.56.77,1.6,2.4,2.14,4.88,1.6.6-.13.93-.07.99.18.06.29-.19.5-.76.63l-13.56,2.93c-.35.08-.56-.03-.62-.3-.06-.28.25-.49.95-.64,1.16-.25,2.03-.78,2.6-1.59.57-.81.79-1.78.66-2.92-.13-1.14-.77-4.38-1.92-9.71-.98-4.55-2.11-9.02-3.37-13.39-1.16.19-1.97.33-2.45.44-3.18.69-5.34,1.85-6.48,3.48-1.14,1.63-1.72,2.99-1.73,4.08,0,.38-.15.61-.47.68-.15.03-.3,0-.46-.12-.3-1.77-.53-4.19-.67-7.27.7-.17,1.15-.27,1.34-.31,1.15-.25,2.7-.52,4.65-.82,2.1-.33,5.29-.96,9.57-1.88,4.38-.95,7.22-1.61,8.52-2,1.18-.38,2.82-.79,4.92-1.25.4,1.02.76,2.1,1.07,3.23.37,1.29.66,2.19.86,2.7.04.12.07.24.1.37.08.35-.04.56-.35.63-.19.04-.36.01-.51-.09-.15-.1-.52-.45-1.12-1.06ZM138.51,263.59c-.39,0-.71-.27-.98-.81-.33-.68-.76-1.02-1.3-1.02-.51,0-1.03.29-1.57.86s-.9,1.19-1.08,1.87c-.18.68-.27,2.1-.27,4.26,0,1.98.08,3.11.24,3.4.16.29.58.48,1.25.56.18.02.27.09.27.21,0,.21-.24.32-.72.32h-4.87c-.35,0-.52-.09-.52-.26,0-.16.23-.25.69-.27.64-.04,1.04-.24,1.19-.6.15-.36.23-1.67.23-3.94,0-3.33-.07-5.33-.21-6.01-.14-.67-.65-1.03-1.53-1.07-.37-.02-.55-.12-.55-.29,0-.09.04-.16.11-.21.08-.05.54-.09,1.4-.15l2.81-.15c.07.55.15,1.65.23,3.3.64-1.14,1.33-2,2.05-2.57.73-.57,1.49-.86,2.3-.86.56,0,1.04.2,1.45.6.41.4.61.86.61,1.37,0,.97-.41,1.45-1.24,1.45ZM152.76,265.83c-.07.1-.46.15-1.17.15l-7.65.12c-.04.52-.06.93-.06,1.24,0,1.45.43,2.67,1.28,3.66.85,1,1.91,1.5,3.16,1.5s2.36-.49,3.41-1.47c.31-.27.5-.41.58-.41.16,0,.25.13.26.4-.39.71-1.05,1.31-1.99,1.8-.94.49-1.98.73-3.13.73-1.69,0-3.12-.61-4.29-1.82-1.17-1.22-1.76-2.76-1.76-4.62,0-1.99.64-3.66,1.93-4.99,1.29-1.33,2.66-2,4.13-2,1.37,0,2.62.52,3.72,1.56,1.11,1.04,1.66,2.27,1.66,3.67,0,.21-.03.37-.1.47ZM163.27,272.24c-.87.85-1.91,1.27-3.11,1.27-.71,0-1.56-.23-2.54-.69-.54-.24-.86-.37-.96-.37-.17,0-.33.11-.46.32-.17.29-.32.43-.47.43-.12,0-.2-.15-.23-.44s-.05-.95-.06-1.98c0-.89-.03-1.46-.04-1.71,0-.38.1-.56.3-.56.12,0,.2.1.27.29.39,1.16.95,2.15,1.66,2.95s1.55,1.21,2.52,1.21c.68,0,1.28-.21,1.81-.63.53-.42.79-.99.79-1.72,0-1.12-.97-2.11-2.91-2.98-1.33-.6-2.22-1.03-2.67-1.31-.45-.27-.8-.65-1.05-1.12s-.38-.98-.38-1.53c0-1.05.4-1.93,1.19-2.64.8-.71,1.76-1.06,2.89-1.06.84,0,1.75.26,2.75.78.16.08.31.12.43.12.1,0,.21-.08.34-.25.12-.16.21-.24.28-.24.09,0,.16.04.21.12s.1.53.17,1.35c.06.82.09,1.5.09,2.03,0,.33-.09.49-.26.49-.15,0-.28-.15-.37-.44-.08-.27-.33-.8-.73-1.57s-.85-1.26-1.34-1.47c-.48-.21-.96-.32-1.43-.32-.73,0-1.33.18-1.8.53s-.7.82-.7,1.39c0,.36.1.68.29.96.19.28.37.5.54.64s1.14.61,2.91,1.41c1.1.5,1.82.88,2.17,1.15.35.27.64.63.87,1.09.23.46.35.93.35,1.43,0,1.18-.44,2.19-1.31,3.04ZM175.65,272.24c-.87.85-1.91,1.27-3.11,1.27-.71,0-1.56-.23-2.54-.69-.54-.24-.86-.37-.96-.37-.17,0-.33.11-.46.32-.17.29-.32.43-.47.43-.12,0-.2-.15-.23-.44s-.05-.95-.06-1.98c0-.89-.03-1.46-.04-1.71,0-.38.1-.56.3-.56.12,0,.2.1.27.29.39,1.16.95,2.15,1.66,2.95s1.55,1.21,2.52,1.21c.68,0,1.28-.21,1.81-.63.53-.42.79-.99.79-1.72,0-1.12-.97-2.11-2.91-2.98-1.33-.6-2.22-1.03-2.67-1.31-.45-.27-.8-.65-1.05-1.12s-.38-.98-.38-1.53c0-1.05.4-1.93,1.19-2.64.8-.71,1.76-1.06,2.89-1.06.84,0,1.75.26,2.75.78.16.08.31.12.43.12.1,0,.21-.08.34-.25.12-.16.21-.24.28-.24.09,0,.16.04.21.12s.1.53.17,1.35c.06.82.09,1.5.09,2.03,0,.33-.09.49-.26.49-.15,0-.28-.15-.37-.44-.08-.27-.33-.8-.73-1.57s-.85-1.26-1.34-1.47c-.48-.21-.96-.32-1.43-.32-.73,0-1.33.18-1.8.53s-.7.82-.7,1.39c0,.36.1.68.29.96.19.28.37.5.54.64s1.14.61,2.91,1.41c1.1.5,1.82.88,2.17,1.15.35.27.64.63.87,1.09.23.46.35.93.35,1.43,0,1.18-.44,2.19-1.31,3.04ZM199.4,229.89c-1.04,0-2.59-.22-4.67-.63,1.41,1.78,2.25,3.3,2.51,4.55.25,1.26.07,2.88-.56,4.88-.83,2.63-1.07,4.56-.71,5.81.35,1.25,1.16,2.24,2.41,2.98.34.22.45.44.33.67-.12.23-.39.24-.8.02-3.71-1.98-5.9-3.31-6.56-3.98-.66-.67-.52-2.34.41-5.01.92-2.59,1.48-4.55,1.69-5.86.2-1.32.03-2.5-.51-3.55-.54-1.05-1.72-2.06-3.54-3.03-.69-.37-1.51-.71-2.46-1.04-.51.8-1.01,1.65-1.49,2.55-1.82,3.4-2.95,5.63-3.39,6.68-.44,1.05-.55,1.93-.32,2.64.23.71.88,1.37,1.97,1.98.47.27.65.51.53.73-.14.26-.5.23-1.08-.08l-9.85-5.26c-.57-.3-.79-.59-.65-.85.12-.23.41-.23.86.01,1.01.54,1.79.76,2.34.66.55-.1,1.12-.4,1.68-.93.57-.52,1.3-1.62,2.2-3.31l2.13-4.08,3.32-6.17c1.68-3.15,2.73-5.28,3.14-6.37.4-1.09.52-1.91.35-2.46-.17-.54-.85-1.26-2.05-2.15-.26-.19-.34-.38-.24-.56.11-.21.45-.17,1.01.13l11.92,6.03c3.25,1.74,5.28,3.62,6.08,5.65.8,2.03.72,3.94-.24,5.75-.61,1.14-1.46,2.02-2.55,2.65s-2.16.93-3.19.93ZM207.49,258.11c-2.91-2.81-4.38-6.18-4.39-10.12-.02-3.94,1.57-7.56,4.75-10.86,1.41-1.46,3.4-2.64,5.97-3.53,2.57-.89,5.26-1.08,8.06-.58,2.8.51,5.27,1.79,7.42,3.86,3,2.89,4.44,6.35,4.33,10.38-.11,4.03-1.49,7.42-4.14,10.17-2.82,2.92-6.43,4.5-10.83,4.74-4.4.23-8.13-1.11-11.17-4.05ZM260.68,280.34c-.2.13-.42.03-.68-.29-.96-1.19-1.88-1.9-2.76-2.13-.89-.23-1.86-.08-2.92.44-1.06.52-4.43,2.59-10.1,6.2l-10.17,6.21c-.51.32-.84.36-1,.11-.04-.07-.07-.17-.08-.32-.01-.15.27-1.12.84-2.93.57-1.81,1.23-4.01,1.99-6.6.76-2.59,1.39-4.66,1.91-6.2,1.09-3.35,1.75-5.44,1.97-6.28.78-3.08,1.35-4.97,1.7-5.65.24-.46.31-.78.2-.95-.09-.14-.38-.05-.88.26l-2.93,1.91c-3.74,2.38-6.66,4.38-8.77,6s-3.28,2.67-3.52,3.14c-.25.47-.39,1.1-.43,1.91-.04.8.13,1.51.53,2.14.53.84.65,1.35.34,1.55-.23.15-.49-.02-.79-.49l-5.81-9.17c-.27-.43-.3-.72-.09-.85.25-.16.51-.03.78.39.99,1.56,2,2.38,3.02,2.46,1.02.08,2.66-.59,4.9-2.02l6.58-4.4c3.95-2.51,6.2-4.09,6.77-4.75.57-.66,1.11-1.69,1.64-3.09.53-1.4.55-2.62.06-3.66-.22-.46-.25-.75-.07-.86.24-.15.54.05.89.61l3.52,5.62c-.54,1.42-1.29,3.75-2.26,7l-3.19,10.58-3.04,10.17c2.38-1.33,5.4-3.17,9.06-5.5,2.75-1.75,4.56-2.98,5.42-3.69.86-.71,1.37-1.63,1.54-2.76.17-1.13-.09-2.25-.79-3.34-.32-.51-.38-.83-.16-.97.13-.08.25-.09.38-.01.13.07.73.89,1.8,2.45,1.07,1.56,1.96,2.89,2.65,3.98l1.62,2.58.27.42c.25.39.26.66.04.8Z"/>
    <path d="M228.2,237.32c-1.59-1.53-3.43-2.28-5.52-2.23-2.09.05-4.09.58-6.01,1.59-1.92,1.02-3.48,2.15-4.69,3.41-1.7,1.77-3.18,3.84-4.43,6.22-1.25,2.38-1.7,4.55-1.35,6.5.35,1.95,1.18,3.57,2.5,4.84,2.13,2.05,4.84,2.66,8.12,1.82,3.28-.84,6.24-2.62,8.87-5.35,2.55-2.64,4.13-5.6,4.75-8.85.62-3.26-.13-5.91-2.24-7.94Z"/>
  </g>
  <path d="M202.75,197.85c-.01-.15-2.21,8.55-2.23,8.4-.09-.84-.2-1.67-.33-2.48-.03-.16-.06-.32-.08-.49-.14-.81-.3-1.61-.49-2.38-.02-.09-.05-.18-.07-.28-.18-.74-.38-1.46-.59-2.16-.03-.11-.06-.22-.1-.33-.22-.72-.46-1.43-.71-2.11-.06-.15-.11-.31-.17-.46-.25-.67-.51-1.32-.78-1.95-.06-.13-.11-.25-.17-.38-.27-.6-.54-1.19-.82-1.76-.03-.06-.06-.13-.09-.19-.3-.6-.6-1.17-.91-1.73-.07-.13-.14-.26-.21-.38-.3-.53-.6-1.04-.9-1.54-.07-.12-.15-.24-.22-.36-.31-.49-.62-.97-.92-1.43-.04-.06-.08-.12-.13-.18-.29-.42-.57-.83-.85-1.21-.06-.08-.12-.17-.18-.25-.3-.4-.58-.78-.87-1.14-.07-.09-.13-.17-.2-.25-.28-.35-.55-.69-.81-1-.04-.05-.08-.1-.13-.15-.26-.31-.51-.59-.74-.85-.02-.02-.04-.04-.05-.06-.25-.28-.48-.53-.7-.76-.02-.03-.05-.05-.07-.08-.21-.23-.41-.42-.58-.59,0,0,0,0,0,0-.49-.49-.78-.75-.78-.75-26.28-34.76-26.57-83.21-26.12-96.29.91-14.38,3.7-30.94,10.34-46.95,0,0,.78-2.05,1.54-5.08,6.09-18.52-4.59-24.48-4.59-24.48-1.66-.85-3.3-1.59-4.92-2.23-2.99-1.3-7.48-2.77-13.07-3.24-3-.32-5.84-.34-8.5-.16-13.89.46-20.84,6-20.84,6-11.99,7.63-3.75,29.19-3.75,29.19,7.37,17.79,10,36.25,10.58,51.65.08,2.28.12,4.5.13,6.63,0,.53,0,1.06,0,1.59-.11,16.76-2.41,28.24-2.41,28.24-7.21,38.4-29.55,63.85-29.55,63.85-.7.44-1.34,1.12-1.94,1.97s-1.14,1.86-1.63,2.98c-.25.56-.48,1.15-.71,1.75s-.43,1.23-.63,1.86c-.5,1.58-.93,3.22-1.29,4.79-.07.31,3.08-2.91,3.09-2.91.34-.18,110.26,1.04,110.17.15ZM148.56,43.83c-2.21,1.83-5.45,1.82-7.62-.06-3.61-3.12-8.35-9.43-7.61-20.71.21-3.14,2.79-5.6,5.93-5.6h11.01c3.14,0,5.75,2.44,5.93,5.58.33,5.81-.51,14.86-7.65,20.79Z"/>
</svg>