<?xml version="1.0" encoding="UTF-8"?>
<svg id="VERY_FINAL_LOGO" data-name="VERY FINAL LOGO" xmlns="http://www.w3.org/2000/svg" viewBox="0 0 286.87 426.62">
  <defs>
    <style>
      .cls-1, .cls-2, .cls-3 {
        fill: #fff;
      }

      .cls-2 {
        font-size: 46.18px;
        stroke: #fff;
        stroke-miterlimit: 10;
      }

      .cls-2, .cls-3 {
        font-family: BellMT, 'Bell MT';
      }

      .cls-3 {
        font-size: 31.27px;
      }
    </style>
  </defs>
  <circle cx="143.75" cy="295.95" r="121.98"/>
  <path class="cls-1" d="M96.32,293.13h94.94s23.24,91.52-47.47,128.38c0,0-67.58-28.82-47.47-128.38Z"/>
  <path d="M150.54,417.93c6.89,7.69,26.26,11.73,34.84,5.99,4.76-3.18,7.22-8.76,9.49-14.02.68-1.57,1.49-3.28,3.07-3.97,1.23-.54,2.65-.31,3.98-.06,5.85,1.08,11.87,2.26,17.71,1.09,10.22-2.04,18.26-12.01,18.09-22.43-.06-3.42-.85-7.08.74-10.11,2.18-4.16,7.59-5.05,12.14-6.23,6-1.55,11.8-4.55,15.65-9.4,3.85-4.85,5.42-11.75,2.98-17.44-1.69-3.93-5.15-7.23-5.46-11.5-.27-3.76,2.05-7.26,4.87-9.75s6.19-4.3,9.06-6.74c5.81-4.96,9.27-12.56,9.18-20.2-.09-7.64-3.72-15.16-9.64-19.98-3.87-3.15-9.13-5.95-9.54-10.93-.24-2.88,1.31-5.55,2.33-8.26,3.17-8.46.94-18.4-4.56-25.56s-13.93-11.73-22.72-13.82c-2.64-.63-5.4-1.08-7.65-2.59-5.47-3.66-5.57-11.45-7.52-17.74-2.52-8.13-9.2-14.85-17.32-17.41-11.39-3.6-23.6.79-34.74,5.12-1.32.51-2.7,1.07-3.59,2.18-.86,1.07-1.12,2.5-1.24,3.87-1.3,14.65,9.23,27.32,18.43,38.79,11.84,14.76,22.54,30.61,29.83,48.07,7.28,17.46,11.04,36.66,8.72,55.44-3.92,31.7-24.68,59.14-49.32,79.47-5.41,4.46-11.86,6.39-18.87,6.08"/>
  <path d="M136.33,417.93c-6.89,7.69-26.26,11.73-34.84,5.99-4.76-3.18-7.22-8.76-9.49-14.02-.68-1.57-1.49-3.28-3.07-3.97-1.23-.54-2.65-.31-3.98-.06-5.85,1.08-11.87,2.26-17.71,1.09-10.22-2.04-18.26-12.01-18.09-22.43.06-3.42.85-7.08-.74-10.11-2.18-4.16-7.59-5.05-12.14-6.23-6-1.55-11.8-4.55-15.65-9.4s-5.42-11.75-2.98-17.44c1.69-3.93,5.15-7.23,5.46-11.5.27-3.76-2.05-7.26-4.87-9.75s-6.19-4.3-9.06-6.74C3.37,308.4-.09,300.79,0,293.15s3.72-15.16,9.64-19.98c3.87-3.15,9.13-5.95,9.54-10.93.24-2.88-1.31-5.55-2.33-8.26-3.17-8.46-.94-18.4,4.56-25.56,5.51-7.17,13.93-11.73,22.72-13.82,2.64-.63,5.4-1.08,7.65-2.59,5.47-3.66,5.57-11.45,7.52-17.74,2.52-8.13,9.2-14.85,17.32-17.41,11.39-3.6,23.6.79,34.74,5.12,1.32.51,2.7,1.07,3.59,2.18.86,1.07,1.12,2.5,1.24,3.87,1.3,14.65-9.23,27.32-18.43,38.79-11.84,14.76-22.54,30.61-29.83,48.07-7.28,17.46-11.04,36.66-8.72,55.44,3.92,31.7,24.68,59.14,49.32,79.47,5.41,4.46,11.86,6.39,18.87,6.08"/>
  <text class="cls-3" transform="translate(108.76 273.24)"><tspan x="0" y="0">Press</tspan></text>
  <g>
    <path d="M165.15,296.93c-.72-.05-1.51.13-2.03.67-.6.63-.8,1.63-.37,2.41.71,1.28,2.87,1.37,3.89.42,1.29-1.19.53-3.18-1.05-3.62-1.25-.36-2.65-.12-3.58.81-.53.54-.89,1.27-.7,2.04.16.64.64,1.1,1.21,1.37,1.18.57,3.21,1.02,4.05-.37.47-.78.33-1.76-.4-2.33-.57-.45-1.38-.45-2.08-.45-.79,0-1.48.32-1.89,1.01-.3.51-.54,1.07-.82,1.6-1.22,2.29-2.7,4.53-4.29,6.47l2.36,1.82c.97-2.24,2.04-4.44,3.27-6.55.27-.46.55-.9.78-1.38.04-.08.08-.15.12-.23.13-.26-.07.05-.11.11-.06.08-.17.04.02,0,.4-.08-.15-.01.09,0,.12,0,.24,0,.36.02-.26-.02.07.02.12.03.24.05.48.12.72.17.43.1.79.09,1.2-.08.12-.05.24-.1.35-.16.16-.08.34-.07-.06.01h-.8.04c-.3-.22-.6-.45-.9-.68l.02.05-.2-.76s.1-.41.03-.2c-.03.08-.05.17-.07.25-.02.07-.05.14-.07.21-.04.14.11-.15.04-.11-.12.07-.26.39-.34.5-.15.21-.3.42-.46.63-.53.71-1.14,1.46-1.8,2.19-1.35,1.52-2.83,2.91-4.41,4.19l2.36,1.82c1.61-2.73,3.3-5.42,5.05-8.06.45-.68.13-1.66-.54-2.05-.73-.43-1.6-.14-2.05.54-1.75,2.64-3.44,5.33-5.05,8.06-.38.64-.2,1.49.39,1.94.64.48,1.37.36,1.97-.12,1.51-1.22,2.93-2.55,4.24-3.99.69-.76,1.34-1.56,1.97-2.37.56-.73,1.17-1.45,1.51-2.32.13-.33.24-.69.25-1.05.01-.8-.58-1.48-1.37-1.58-.43-.06-.99.08-1.34.36.5-.4,1.08-.03.64-.17-.09-.03-.19-.05-.29-.07-.33-.07-.66-.13-.99-.16-1.04-.12-2.17.15-2.85,1-.24.3-.37.63-.56.96-.25.44-.53.87-.78,1.31-1.15,2.01-2.17,4.1-3.08,6.23-.3.69-.26,1.45.39,1.94.55.41,1.49.47,1.97-.12,1.26-1.54,2.44-3.15,3.48-4.84.5-.81.96-1.63,1.4-2.47.11-.21.22-.42.32-.63.09-.17.28-.43.3-.62.11-.18-.02-.13-.36.15-.43.14-.54.21-.33.21.09.03.22.01.31.01.11,0,.22.01.33.02.55.03-.08.12-.4-.25l-.39-.66.02.1v-.8l.22-.39.66-.39c-.29.12.15.05-.21.03-.11,0-.23,0-.34-.02.09.01.18.08,0-.01-.09-.05-.18-.09-.27-.12-.3-.12-.01-.05-.03.03.4.55.44,1,.14,1.34-.06.07-.06.07,0,0,.09-.07.22-.19.05-.07.05-.03.1-.07.15-.09.09-.05.06-.04-.07.04-.18-.05.06,0,.15,0,.13,0,.26,0,.39.01-.22-.02.05.07,0,0-.14-.05-.24-.14-.32-.28l.17-1.16c.4-.19.51-.26.31-.2-.11.03-.08.03.1,0-.1,0-.22-.01-.32.01-.34-.03-.23.22.31.74.56.49.54.86-.06,1.12h-.1c.1.01.2.02.3.03.78.06,1.53-.73,1.5-1.5-.04-.86-.66-1.44-1.5-1.5h0Z"/>
    <path d="M122.34,299.93c.08,0,.15-.01.23-.01.11,0,.1,0-.02-.01l-.45-.38.77-1.48c-.1-.03-.28,0-.39,0,.33.04-.18-.15.22.09.45.2.57.62.36,1.27l-.27.27c-.12.04-.12.05-.02.02.09-.02.1-.02.02,0-.17.02.22,0,.25,0,.06,0,.42-.06.23,0-.09.03-.18-.12.03.02.08.06.07.04-.05-.04l.1.09.09.1c-.2-.19-.2-.44,0-.75-.1-.34-.02-.6.22-.75l-.1.06c-.11.03-.22.1-.32.15-.09.04-.13.03-.02.01.07-.01-.3.01-.31.02h-.17c.15.04.13.03-.04-.03l.66.39.22.39v.8l.02-.1-.39.66c-.08.09-.95.24-.48.26.11,0,.22-.01.33-.02s.23,0,.33-.02c.45-.1-.68-.24-.66-.42-.01.14.23.47.29.6.11.21.21.42.32.63.45.87.93,1.71,1.44,2.55,1.04,1.7,2.22,3.31,3.48,4.84.47.57,1.44.54,1.97.12.63-.5.69-1.23.39-1.94-.81-1.88-1.69-3.72-2.68-5.51-.45-.81-.96-1.59-1.37-2.41-.52-1.04-1.49-1.56-2.63-1.61-.48-.02-.97.07-1.43.16-.13.03-.47.05-.58.14.06-.05.97.29.69.08-.06-.04-.13-.08-.2-.11-.64-.32-1.42-.32-1.95.22-.48.48-.53,1.17-.36,1.8.22.81.69,1.44,1.18,2.1.61.82,1.25,1.63,1.92,2.41,1.44,1.67,3.04,3.2,4.76,4.58.58.47,1.34.62,1.97.12.58-.46.77-1.28.39-1.94-1.61-2.73-3.3-5.42-5.05-8.06-.45-.67-1.33-.96-2.05-.54-.67.39-.99,1.37-.54,2.05,1.75,2.64,3.44,5.33,5.05,8.06l2.36-1.82c-1.58-1.27-3.06-2.67-4.41-4.19-.63-.71-1.23-1.44-1.74-2.12-.28-.38-.53-.82-.84-1.17-.13-.15.07.13.05.13s-.07-.18-.08-.2c-.03-.08-.05-.17-.08-.25-.05-.16.02-.28.01.15l-.2.76.02-.05-.9.69h.04c-.27-.01-.53-.01-.8-.01-.33-.07-.26-.12-.11-.04.07.04.14.07.21.11.44.21.83.26,1.31.17.24-.04.48-.12.72-.17.03,0,.41-.07.25-.05s.21,0,.24,0c.26-.04-.04-.04.09,0,.04,0,.09.02.13.03.1.03.09.02-.05-.02-.04-.05-.19-.32-.15-.16.02.09.11.21.15.28.24.47.52.92.78,1.38,1.23,2.11,2.3,4.3,3.27,6.55l2.36-1.82c-1.41-1.72-2.74-3.68-3.87-5.69-.29-.52-.57-1.04-.83-1.57-.3-.6-.56-1.22-1.17-1.58-.58-.34-1.32-.26-1.96-.2-.88.07-1.65.46-1.88,1.38-.25.97.43,1.92,1.35,2.18.63.17,1.49.11,2.1-.09.49-.16,1.1-.44,1.48-.8.63-.59.79-1.52.38-2.28-.61-1.15-1.85-1.7-3.11-1.64-.68.03-1.32.15-1.86.59-.66.53-1.01,1.41-.76,2.25.47,1.57,2.9,2.06,4.08,1,.7-.64.83-1.68.35-2.5s-1.44-1.15-2.35-1.08c-.78.06-1.54.65-1.5,1.5.03.76.66,1.56,1.5,1.5h0Z"/>
    <g>
      <g>
        <path d="M144.67,296.76c-.34,0-.69.04-.99.17-.54.23-1.01.66-1.31,1.18-.04.07-.1.13-.14.2-.34.61-.45,1.31-.5,2.01-.24,3.12.69,6.32,2.57,8.82.1.13.22.26.37.33v-12.71Z"/>
        <path d="M144.67,295.26c-1.67.05-3.09.97-3.82,2.48-.68,1.39-.73,3.09-.61,4.6s.45,3.01,1.04,4.42,1.35,3.15,2.64,4c.97.64,2.26-.21,2.26-1.3v-12.71c0-1.93-3-1.93-3,0v12.71l2.26-1.3c.19.13-.21-.34-.2-.32-.16-.24-.31-.48-.45-.72-.26-.44-.49-.9-.69-1.37-.39-.95-.68-1.98-.81-3-.15-1.19-.48-4.45,1.39-4.51s1.93-3.06,0-3Z"/>
      </g>
      <g>
        <path d="M144.74,296.76c.34,0,.69.04.99.17.54.23,1.01.66,1.31,1.18.04.07.1.13.14.2.34.61.45,1.31.5,2.01.24,3.12-.69,6.32-2.57,8.82-.1.13-.22.26-.37.33v-12.71Z"/>
        <path d="M144.74,298.26c1.87.06,1.54,3.32,1.39,4.51-.13,1.02-.41,2.05-.81,3-.19.47-.43.93-.69,1.37-.14.25-.29.49-.45.72.01-.02-.39.44-.2.32l2.26,1.3c0-3.71,0-7.43,0-11.14v-1.58c0-1.93-3-1.93-3,0,0,3.71,0,7.43,0,11.14v1.58c0,1.09,1.29,1.93,2.26,1.3,1.29-.86,2.07-2.61,2.64-4s.91-2.9,1.04-4.42.08-3.22-.61-4.6c-.75-1.51-2.15-2.43-3.82-2.48-1.93-.06-1.93,2.94,0,3Z"/>
      </g>
    </g>
  </g>
  <g>
    <path d="M87.93,209.41s2.16-18.61,7.75-22.15c0,0,22.34-25.44,29.55-63.85,0,0,9.19-45.94-8.29-88.11,0,0-7.91-21.52,3.87-29.1,0,0,21.53-13.66,47.21-.47,0,0,13.39,7.45,1.68,31.6,0,0-6.86,12.81-8.8,41.55,0,0-4.69,59.13,25.95,99.66,0,0,13.33,11.78,13.88,30.86,0,0-89.56-12.49-112.81,0Z"/>
    <g>
      <path d="M141.54.12c-13.89.46-20.84,6-20.84,6-11.99,7.63-3.75,29.19-3.75,29.19,17.48,42.17,8.29,88.11,8.29,88.11-7.21,38.4-29.55,63.85-29.55,63.85-5.59,3.53-7.75,22.15-7.75,22.15,9.88-5.31,31.74-6.1,53.6-5.26V.12Z"/>
      <path d="M187.64,207.8c8.03.91,13.09,1.61,13.09,1.61-.46-16.29-10.24-27.25-13.09-30.11v28.5Z"/>
    </g>
    <path d="M146.49.12c12.62,0,20.77,5.56,20.77,5.56,12.59,6.74,3.82,29.63,3.82,29.63-17.48,42.17-8.29,88.11-8.29,88.11,7.21,38.4,29.55,63.85,29.55,63.85,5.59,3.53,7.75,22.15,7.75,22.15-9.88-5.31-31.74-6.1-53.6-5.26V.12Z"/>
    <path class="cls-1" d="M139.27,17.47h11.01c3.14,0,5.75,2.44,5.93,5.58.33,5.81-.51,14.86-7.65,20.79-2.21,1.83-5.45,1.82-7.62-.06-3.61-3.12-8.35-9.43-7.61-20.71.21-3.14,2.79-5.6,5.93-5.6Z"/>
  </g>
  <text id="CAST_IRON_IV" data-name="CAST  IRON IV" class="cls-2" transform="translate(53.01 297.37) rotate(-64.38)"><tspan x="0" y="0">C</tspan></text>
  <text class="cls-2" transform="translate(65.14 271.05) rotate(-49.15)"><tspan x="0" y="0">A</tspan></text>
  <text class="cls-2" transform="translate(86.15 247.43) rotate(-30.51)"><tspan x="0" y="0">S</tspan></text>
  <text class="cls-2" transform="translate(103.53 235.79) rotate(-12.17)"><tspan x="0" y="0">T</tspan></text>
  <text class="cls-2" transform="translate(136.05 230.32) rotate(.57)"><tspan x="0" y="0"> </tspan></text>
  <text class="cls-2" transform="translate(146.17 230.11) rotate(6.09)"><tspan x="0" y="0"> </tspan></text>
  <text class="cls-2" transform="translate(154.71 230.66) rotate(13.85)"><tspan x="0" y="0">I</tspan></text>
  <text class="cls-2" transform="translate(171.12 233.77) rotate(28.1)"><tspan x="0" y="0">R</tspan></text>
  <text class="cls-2" transform="translate(196.09 246.51) rotate(43.93)"><tspan x="0" y="0">O</tspan></text>
  <text class="cls-2" transform="translate(218.18 267.39) rotate(57.54)"><tspan x="0" y="0">N</tspan></text>
</svg>